<svg xmlns="http://www.w3.org/2000/svg" xmlns:xlink="http://www.w3.org/1999/xlink" width="1920" zoomAndPan="magnify" viewBox="0 0 1440 809.999993" height="1080" preserveAspectRatio="xMidYMid meet" version="1.2"><defs/><g id="f59a4eacd6"><rect x="0" width="1440" y="0" height="809.999993" style="fill:#ffffff;fill-opacity:1;stroke:none;"/><rect x="0" width="1440" y="0" height="809.999993" style="fill:#0d1117;fill-opacity:1;stroke:none;"/><g style="fill:#ffffff;fill-opacity:1;"><g transform="translate(690.0527, 387.75)"><path style="stroke:none" d="M 5.109375 -37.125 L 15.59375 -37.125 C 20.519531 -37.125 24.082031 -36.382812 26.28125 -34.90625 C 28.476562 -33.4375 29.578125 -31.113281 29.578125 -27.9375 C 29.578125 -25.726562 28.960938 -23.910156 27.734375 -22.484375 C 26.515625 -21.054688 24.726562 -20.128906 22.375 -19.703125 L 22.375 -19.453125 C 28.007812 -18.484375 30.828125 -15.519531 30.828125 -10.5625 C 30.828125 -7.25 29.703125 -4.660156 27.453125 -2.796875 C 25.210938 -0.929688 22.078125 0 18.046875 0 L 5.109375 0 Z M 9.421875 -21.234375 L 16.53125 -21.234375 C 19.570312 -21.234375 21.757812 -21.707031 23.09375 -22.65625 C 24.4375 -23.613281 25.109375 -25.226562 25.109375 -27.5 C 25.109375 -29.582031 24.363281 -31.082031 22.875 -32 C 21.382812 -32.925781 19.015625 -33.390625 15.765625 -33.390625 L 9.421875 -33.390625 Z M 9.421875 -17.578125 L 9.421875 -3.6875 L 17.171875 -3.6875 C 20.160156 -3.6875 22.410156 -4.265625 23.921875 -5.421875 C 25.441406 -6.578125 26.203125 -8.394531 26.203125 -10.875 C 26.203125 -13.175781 25.425781 -14.867188 23.875 -15.953125 C 22.332031 -17.035156 19.976562 -17.578125 16.8125 -17.578125 Z M 9.421875 -17.578125 "/></g></g><g style="fill:#ffffff;fill-opacity:1;"><g transform="translate(723.743532, 387.75)"><path style="stroke:none" d="M 0.046875 -27.828125 L 4.578125 -27.828125 L 10.671875 -11.953125 C 12.003906 -8.335938 12.832031 -5.722656 13.15625 -4.109375 L 13.359375 -4.109375 C 13.578125 -4.972656 14.035156 -6.453125 14.734375 -8.546875 C 15.441406 -10.640625 17.742188 -17.066406 21.640625 -27.828125 L 26.15625 -27.828125 L 14.1875 3.859375 C 13.007812 6.992188 11.628906 9.21875 10.046875 10.53125 C 8.460938 11.84375 6.519531 12.5 4.21875 12.5 C 2.925781 12.5 1.65625 12.351562 0.40625 12.0625 L 0.40625 8.6875 C 1.332031 8.882812 2.375 8.984375 3.53125 8.984375 C 6.425781 8.984375 8.488281 7.359375 9.71875 4.109375 L 11.28125 0.15625 Z M 0.046875 -27.828125 "/></g></g><g style="fill:#ffffff;fill-opacity:1;"><g transform="translate(506.314428, 458.999997)"><path style="stroke:none" d="M 25.421875 -8.0625 L 9.625 -8.0625 L 6.703125 0 L 1.71875 0 L 14.8125 -36.03125 L 20.28125 -36.03125 L 33.328125 0 L 28.34375 0 Z M 24.078125 -11.90625 L 17.53125 -30.21875 L 10.96875 -11.90625 Z M 24.078125 -11.90625 "/></g></g><g style="fill:#ffffff;fill-opacity:1;"><g transform="translate(541.35976, 458.999997)"><path style="stroke:none" d="M 29.28125 -28.5 L 29.28125 0 L 24.546875 0 L 24.546875 -4.21875 C 23.640625 -2.757812 22.378906 -1.617188 20.765625 -0.796875 C 19.160156 0.015625 17.382812 0.421875 15.4375 0.421875 C 13.21875 0.421875 11.222656 -0.0351562 9.453125 -0.953125 C 7.691406 -1.878906 6.300781 -3.257812 5.28125 -5.09375 C 4.257812 -6.9375 3.75 -9.171875 3.75 -11.796875 L 3.75 -28.5 L 8.421875 -28.5 L 8.421875 -12.421875 C 8.421875 -9.617188 9.128906 -7.460938 10.546875 -5.953125 C 11.972656 -4.441406 13.914062 -3.6875 16.375 -3.6875 C 18.90625 -3.6875 20.898438 -4.46875 22.359375 -6.03125 C 23.816406 -7.59375 24.546875 -9.863281 24.546875 -12.84375 L 24.546875 -28.5 Z M 29.28125 -28.5 "/></g></g><g style="fill:#ffffff;fill-opacity:1;"><g transform="translate(574.637232, 458.999997)"><path style="stroke:none" d="M 8.734375 -23.875 C 9.566406 -25.5 10.753906 -26.757812 12.296875 -27.65625 C 13.835938 -28.5625 15.71875 -29.015625 17.9375 -29.015625 L 17.9375 -24.125 L 16.6875 -24.125 C 11.382812 -24.125 8.734375 -21.25 8.734375 -15.5 L 8.734375 0 L 4 0 L 4 -28.5 L 8.734375 -28.5 Z M 8.734375 -23.875 "/></g></g><g style="fill:#ffffff;fill-opacity:1;"><g transform="translate(594.031762, 458.999997)"><path style="stroke:none" d="M 30 -15.34375 C 30 -14.4375 29.945312 -13.484375 29.84375 -12.484375 L 7.078125 -12.484375 C 7.242188 -9.671875 8.203125 -7.472656 9.953125 -5.890625 C 11.703125 -4.316406 13.828125 -3.53125 16.328125 -3.53125 C 18.367188 -3.53125 20.070312 -4.003906 21.4375 -4.953125 C 22.8125 -5.910156 23.78125 -7.1875 24.34375 -8.78125 L 29.4375 -8.78125 C 28.664062 -6.050781 27.132812 -3.828125 24.84375 -2.109375 C 22.5625 -0.390625 19.722656 0.46875 16.328125 0.46875 C 13.617188 0.46875 11.195312 -0.132812 9.0625 -1.34375 C 6.9375 -2.5625 5.265625 -4.285156 4.046875 -6.515625 C 2.835938 -8.753906 2.234375 -11.347656 2.234375 -14.296875 C 2.234375 -17.242188 2.820312 -19.828125 4 -22.046875 C 5.175781 -24.265625 6.832031 -25.972656 8.96875 -27.171875 C 11.101562 -28.367188 13.554688 -28.96875 16.328125 -28.96875 C 19.035156 -28.96875 21.425781 -28.375 23.5 -27.1875 C 25.582031 -26.007812 27.1875 -24.390625 28.3125 -22.328125 C 29.4375 -20.265625 30 -17.9375 30 -15.34375 Z M 25.109375 -16.328125 C 25.109375 -18.128906 24.707031 -19.679688 23.90625 -20.984375 C 23.113281 -22.285156 22.03125 -23.269531 20.65625 -23.9375 C 19.289062 -24.613281 17.78125 -24.953125 16.125 -24.953125 C 13.726562 -24.953125 11.6875 -24.191406 10 -22.671875 C 8.320312 -21.148438 7.363281 -19.035156 7.125 -16.328125 Z M 25.109375 -16.328125 "/></g></g><g style="fill:#ffffff;fill-opacity:1;"><g transform="translate(626.269309, 458.999997)"><path style="stroke:none" d="M 8.734375 -38.484375 L 8.734375 0 L 4 0 L 4 -38.484375 Z M 8.734375 -38.484375 "/></g></g><g style="fill:#ffffff;fill-opacity:1;"><g transform="translate(639.060336, 458.999997)"><path style="stroke:none" d="M 6.453125 -33.125 C 5.546875 -33.125 4.78125 -33.4375 4.15625 -34.0625 C 3.53125 -34.6875 3.21875 -35.445312 3.21875 -36.34375 C 3.21875 -37.25 3.53125 -38.015625 4.15625 -38.640625 C 4.78125 -39.265625 5.546875 -39.578125 6.453125 -39.578125 C 7.316406 -39.578125 8.050781 -39.265625 8.65625 -38.640625 C 9.257812 -38.015625 9.5625 -37.25 9.5625 -36.34375 C 9.5625 -35.445312 9.257812 -34.6875 8.65625 -34.0625 C 8.050781 -33.4375 7.316406 -33.125 6.453125 -33.125 Z M 8.734375 -28.5 L 8.734375 0 L 4 0 L 4 -28.5 Z M 8.734375 -28.5 "/></g></g><g style="fill:#ffffff;fill-opacity:1;"><g transform="translate(651.851362, 458.999997)"><path style="stroke:none" d="M 16.4375 0.46875 C 13.757812 0.46875 11.335938 -0.132812 9.171875 -1.34375 C 7.003906 -2.5625 5.304688 -4.285156 4.078125 -6.515625 C 2.847656 -8.753906 2.234375 -11.347656 2.234375 -14.296875 C 2.234375 -17.210938 2.863281 -19.785156 4.125 -22.015625 C 5.394531 -24.253906 7.117188 -25.972656 9.296875 -27.171875 C 11.484375 -28.367188 13.929688 -28.96875 16.640625 -28.96875 C 19.347656 -28.96875 21.789062 -28.367188 23.96875 -27.171875 C 26.15625 -25.972656 27.878906 -24.265625 29.140625 -22.046875 C 30.410156 -19.828125 31.046875 -17.242188 31.046875 -14.296875 C 31.046875 -11.347656 30.394531 -8.753906 29.09375 -6.515625 C 27.789062 -4.285156 26.03125 -2.5625 23.8125 -1.34375 C 21.59375 -0.132812 19.132812 0.46875 16.4375 0.46875 Z M 16.4375 -3.6875 C 18.132812 -3.6875 19.726562 -4.082031 21.21875 -4.875 C 22.707031 -5.675781 23.910156 -6.875 24.828125 -8.46875 C 25.742188 -10.070312 26.203125 -12.015625 26.203125 -14.296875 C 26.203125 -16.585938 25.75 -18.53125 24.84375 -20.125 C 23.945312 -21.71875 22.769531 -22.90625 21.3125 -23.6875 C 19.863281 -24.46875 18.289062 -24.859375 16.59375 -24.859375 C 14.851562 -24.859375 13.265625 -24.46875 11.828125 -23.6875 C 10.390625 -22.90625 9.238281 -21.71875 8.375 -20.125 C 7.507812 -18.53125 7.078125 -16.585938 7.078125 -14.296875 C 7.078125 -11.972656 7.5 -10.015625 8.34375 -8.421875 C 9.195312 -6.828125 10.332031 -5.640625 11.75 -4.859375 C 13.175781 -4.078125 14.738281 -3.6875 16.4375 -3.6875 Z M 16.4375 -3.6875 "/></g></g><g style="fill:#ffffff;fill-opacity:1;"><g transform="translate(699.011776, 458.999997)"><path style="stroke:none" d="M 8.734375 -3.84375 L 21.421875 -3.84375 L 21.421875 0 L 4 0 L 4 -36.25 L 8.734375 -36.25 Z M 8.734375 -3.84375 "/></g></g><g style="fill:#ffffff;fill-opacity:1;"><g transform="translate(721.474055, 458.999997)"><path style="stroke:none" d="M 2.234375 -14.359375 C 2.234375 -17.265625 2.820312 -19.816406 4 -22.015625 C 5.175781 -24.222656 6.796875 -25.929688 8.859375 -27.140625 C 10.921875 -28.359375 13.21875 -28.96875 15.75 -28.96875 C 18.25 -28.96875 20.414062 -28.425781 22.25 -27.34375 C 24.09375 -26.269531 25.460938 -24.921875 26.359375 -23.296875 L 26.359375 -28.5 L 31.140625 -28.5 L 31.140625 0 L 26.359375 0 L 26.359375 -5.296875 C 25.421875 -3.640625 24.023438 -2.265625 22.171875 -1.171875 C 20.316406 -0.078125 18.160156 0.46875 15.703125 0.46875 C 13.171875 0.46875 10.878906 -0.15625 8.828125 -1.40625 C 6.785156 -2.65625 5.175781 -4.40625 4 -6.65625 C 2.820312 -8.90625 2.234375 -11.472656 2.234375 -14.359375 Z M 26.359375 -14.296875 C 26.359375 -16.453125 25.925781 -18.328125 25.0625 -19.921875 C 24.195312 -21.515625 23.023438 -22.734375 21.546875 -23.578125 C 20.078125 -24.429688 18.457031 -24.859375 16.6875 -24.859375 C 14.925781 -24.859375 13.316406 -24.441406 11.859375 -23.609375 C 10.398438 -22.773438 9.238281 -21.5625 8.375 -19.96875 C 7.507812 -18.375 7.078125 -16.503906 7.078125 -14.359375 C 7.078125 -12.171875 7.507812 -10.269531 8.375 -8.65625 C 9.238281 -7.039062 10.398438 -5.804688 11.859375 -4.953125 C 13.316406 -4.109375 14.925781 -3.6875 16.6875 -3.6875 C 18.457031 -3.6875 20.078125 -4.109375 21.546875 -4.953125 C 23.023438 -5.804688 24.195312 -7.039062 25.0625 -8.65625 C 25.925781 -10.269531 26.359375 -12.148438 26.359375 -14.296875 Z M 26.359375 -14.296875 "/></g></g><g style="fill:#ffffff;fill-opacity:1;"><g transform="translate(770.506333, 458.999997)"><path style="stroke:none" d="M 23.09375 0 L 14.453125 -14.8125 L 8.734375 -14.8125 L 8.734375 0 L 4 0 L 4 -36.25 L 15.703125 -36.25 C 18.441406 -36.25 20.753906 -35.78125 22.640625 -34.84375 C 24.535156 -33.90625 25.945312 -32.640625 26.875 -31.046875 C 27.8125 -29.453125 28.28125 -27.628906 28.28125 -25.578125 C 28.28125 -23.085938 27.5625 -20.890625 26.125 -18.984375 C 24.6875 -17.078125 22.53125 -15.8125 19.65625 -15.1875 L 28.75 0 Z M 8.734375 -18.609375 L 15.703125 -18.609375 C 18.265625 -18.609375 20.1875 -19.238281 21.46875 -20.5 C 22.757812 -21.769531 23.40625 -23.460938 23.40625 -25.578125 C 23.40625 -27.734375 22.769531 -29.398438 21.5 -30.578125 C 20.238281 -31.753906 18.304688 -32.34375 15.703125 -32.34375 L 8.734375 -32.34375 Z M 8.734375 -18.609375 "/></g></g><g style="fill:#ffffff;fill-opacity:1;"><g transform="translate(802.119926, 458.999997)"><path style="stroke:none" d="M 16.4375 0.46875 C 13.757812 0.46875 11.335938 -0.132812 9.171875 -1.34375 C 7.003906 -2.5625 5.304688 -4.285156 4.078125 -6.515625 C 2.847656 -8.753906 2.234375 -11.347656 2.234375 -14.296875 C 2.234375 -17.210938 2.863281 -19.785156 4.125 -22.015625 C 5.394531 -24.253906 7.117188 -25.972656 9.296875 -27.171875 C 11.484375 -28.367188 13.929688 -28.96875 16.640625 -28.96875 C 19.347656 -28.96875 21.789062 -28.367188 23.96875 -27.171875 C 26.15625 -25.972656 27.878906 -24.265625 29.140625 -22.046875 C 30.410156 -19.828125 31.046875 -17.242188 31.046875 -14.296875 C 31.046875 -11.347656 30.394531 -8.753906 29.09375 -6.515625 C 27.789062 -4.285156 26.03125 -2.5625 23.8125 -1.34375 C 21.59375 -0.132812 19.132812 0.46875 16.4375 0.46875 Z M 16.4375 -3.6875 C 18.132812 -3.6875 19.726562 -4.082031 21.21875 -4.875 C 22.707031 -5.675781 23.910156 -6.875 24.828125 -8.46875 C 25.742188 -10.070312 26.203125 -12.015625 26.203125 -14.296875 C 26.203125 -16.585938 25.75 -18.53125 24.84375 -20.125 C 23.945312 -21.71875 22.769531 -22.90625 21.3125 -23.6875 C 19.863281 -24.46875 18.289062 -24.859375 16.59375 -24.859375 C 14.851562 -24.859375 13.265625 -24.46875 11.828125 -23.6875 C 10.390625 -22.90625 9.238281 -21.71875 8.375 -20.125 C 7.507812 -18.53125 7.078125 -16.585938 7.078125 -14.296875 C 7.078125 -11.972656 7.5 -10.015625 8.34375 -8.421875 C 9.195312 -6.828125 10.332031 -5.640625 11.75 -4.859375 C 13.175781 -4.078125 14.738281 -3.6875 16.4375 -3.6875 Z M 16.4375 -3.6875 "/></g></g><g style="fill:#ffffff;fill-opacity:1;"><g transform="translate(835.39742, 458.999997)"><path style="stroke:none" d="M 2.234375 -14.296875 C 2.234375 -17.242188 2.820312 -19.816406 4 -22.015625 C 5.175781 -24.222656 6.8125 -25.929688 8.90625 -27.140625 C 11.007812 -28.359375 13.414062 -28.96875 16.125 -28.96875 C 19.625 -28.96875 22.507812 -28.117188 24.78125 -26.421875 C 27.050781 -24.722656 28.550781 -22.363281 29.28125 -19.34375 L 24.1875 -19.34375 C 23.695312 -21.070312 22.75 -22.4375 21.34375 -23.4375 C 19.9375 -24.445312 18.195312 -24.953125 16.125 -24.953125 C 13.414062 -24.953125 11.226562 -24.023438 9.5625 -22.171875 C 7.90625 -20.316406 7.078125 -17.691406 7.078125 -14.296875 C 7.078125 -10.867188 7.90625 -8.21875 9.5625 -6.34375 C 11.226562 -4.46875 13.414062 -3.53125 16.125 -3.53125 C 18.195312 -3.53125 19.925781 -4.015625 21.3125 -4.984375 C 22.707031 -5.960938 23.664062 -7.351562 24.1875 -9.15625 L 29.28125 -9.15625 C 28.507812 -6.238281 26.976562 -3.90625 24.6875 -2.15625 C 22.40625 -0.40625 19.550781 0.46875 16.125 0.46875 C 13.414062 0.46875 11.007812 -0.132812 8.90625 -1.34375 C 6.8125 -2.5625 5.175781 -4.28125 4 -6.5 C 2.820312 -8.71875 2.234375 -11.316406 2.234375 -14.296875 Z M 2.234375 -14.296875 "/></g></g><g style="fill:#ffffff;fill-opacity:1;"><g transform="translate(866.959011, 458.999997)"><path style="stroke:none" d="M 2.234375 -14.296875 C 2.234375 -17.242188 2.820312 -19.816406 4 -22.015625 C 5.175781 -24.222656 6.8125 -25.929688 8.90625 -27.140625 C 11.007812 -28.359375 13.414062 -28.96875 16.125 -28.96875 C 19.625 -28.96875 22.507812 -28.117188 24.78125 -26.421875 C 27.050781 -24.722656 28.550781 -22.363281 29.28125 -19.34375 L 24.1875 -19.34375 C 23.695312 -21.070312 22.75 -22.4375 21.34375 -23.4375 C 19.9375 -24.445312 18.195312 -24.953125 16.125 -24.953125 C 13.414062 -24.953125 11.226562 -24.023438 9.5625 -22.171875 C 7.90625 -20.316406 7.078125 -17.691406 7.078125 -14.296875 C 7.078125 -10.867188 7.90625 -8.21875 9.5625 -6.34375 C 11.226562 -4.46875 13.414062 -3.53125 16.125 -3.53125 C 18.195312 -3.53125 19.925781 -4.015625 21.3125 -4.984375 C 22.707031 -5.960938 23.664062 -7.351562 24.1875 -9.15625 L 29.28125 -9.15625 C 28.507812 -6.238281 26.976562 -3.90625 24.6875 -2.15625 C 22.40625 -0.40625 19.550781 0.46875 16.125 0.46875 C 13.414062 0.46875 11.007812 -0.132812 8.90625 -1.34375 C 6.8125 -2.5625 5.175781 -4.28125 4 -6.5 C 2.820312 -8.71875 2.234375 -11.316406 2.234375 -14.296875 Z M 2.234375 -14.296875 "/></g></g><g style="fill:#ffffff;fill-opacity:1;"><g transform="translate(898.520602, 458.999997)"><path style="stroke:none" d="M 2.234375 -14.359375 C 2.234375 -17.265625 2.820312 -19.816406 4 -22.015625 C 5.175781 -24.222656 6.796875 -25.929688 8.859375 -27.140625 C 10.921875 -28.359375 13.21875 -28.96875 15.75 -28.96875 C 18.25 -28.96875 20.414062 -28.425781 22.25 -27.34375 C 24.09375 -26.269531 25.460938 -24.921875 26.359375 -23.296875 L 26.359375 -28.5 L 31.140625 -28.5 L 31.140625 0 L 26.359375 0 L 26.359375 -5.296875 C 25.421875 -3.640625 24.023438 -2.265625 22.171875 -1.171875 C 20.316406 -0.078125 18.160156 0.46875 15.703125 0.46875 C 13.171875 0.46875 10.878906 -0.15625 8.828125 -1.40625 C 6.785156 -2.65625 5.175781 -4.40625 4 -6.65625 C 2.820312 -8.90625 2.234375 -11.472656 2.234375 -14.359375 Z M 26.359375 -14.296875 C 26.359375 -16.453125 25.925781 -18.328125 25.0625 -19.921875 C 24.195312 -21.515625 23.023438 -22.734375 21.546875 -23.578125 C 20.078125 -24.429688 18.457031 -24.859375 16.6875 -24.859375 C 14.925781 -24.859375 13.316406 -24.441406 11.859375 -23.609375 C 10.398438 -22.773438 9.238281 -21.5625 8.375 -19.96875 C 7.507812 -18.375 7.078125 -16.503906 7.078125 -14.359375 C 7.078125 -12.171875 7.507812 -10.269531 8.375 -8.65625 C 9.238281 -7.039062 10.398438 -5.804688 11.859375 -4.953125 C 13.316406 -4.109375 14.925781 -3.6875 16.6875 -3.6875 C 18.457031 -3.6875 20.078125 -4.109375 21.546875 -4.953125 C 23.023438 -5.804688 24.195312 -7.039062 25.0625 -8.65625 C 25.925781 -10.269531 26.359375 -12.148438 26.359375 -14.296875 Z M 26.359375 -14.296875 "/></g></g></g></svg>