<svg xmlns="http://www.w3.org/2000/svg" xmlns:xlink="http://www.w3.org/1999/xlink" width="1920" zoomAndPan="magnify" viewBox="0 0 1440 809.999993" height="1080" preserveAspectRatio="xMidYMid meet" version="1.2"><defs><clipPath id="aa073a2c9f"><path d="M 360.515625 205.054688 L 1079.765625 205.054688 L 1079.765625 481.054688 L 360.515625 481.054688 Z M 360.515625 205.054688 "/></clipPath></defs><g id="3cc752f76b"><rect x="0" width="1440" y="0" height="809.999993" style="fill:#ffffff;fill-opacity:1;stroke:none;"/><rect x="0" width="1440" y="0" height="809.999993" style="fill:#0d1117;fill-opacity:1;stroke:none;"/><g clip-rule="nonzero" clip-path="url(#aa073a2c9f)"><path style=" stroke:none;fill-rule:nonzero;fill:#ffffff;fill-opacity:1;" d="M 183.21875 -84.15625 L 1227.21875 -84.15625 L 1227.21875 959.84375 L 183.21875 959.84375 Z M 183.21875 -84.15625 "/><path style=" stroke:none;fill-rule:nonzero;fill:#0d1117;fill-opacity:1;" d="M 183.21875 -84.15625 L 1227.21875 -84.15625 L 1227.21875 959.84375 L 183.21875 959.84375 Z M 183.21875 -84.15625 "/></g><path style=" stroke:none;fill-rule:nonzero;fill:#58a6ff;fill-opacity:1;" d="M 588.203125 401.5625 L 491.589844 401.5625 L 473.796875 450.847656 L 443.261719 450.847656 L 523.34375 230.5625 L 556.753906 230.5625 L 636.53125 450.847656 L 605.996094 450.847656 Z M 579.9375 378.070312 L 539.875 266.1875 L 499.855469 378.070312 Z M 579.9375 378.070312 "/><path style=" stroke:none;fill-rule:nonzero;fill:#58a6ff;fill-opacity:1;" d="M 700.417969 427.3125 L 777.9375 427.3125 L 777.9375 450.847656 L 671.492188 450.847656 L 671.492188 229.300781 L 700.417969 229.300781 Z M 700.417969 427.3125 "/><path style=" stroke:none;fill-rule:nonzero;fill:#58a6ff;fill-opacity:1;" d="M 925.421875 450.847656 L 872.65625 360.28125 L 837.726562 360.28125 L 837.726562 450.847656 L 808.800781 450.847656 L 808.800781 229.300781 L 880.3125 229.300781 C 897.039062 229.300781 911.175781 232.171875 922.726562 237.914062 C 934.265625 243.632812 942.886719 251.355469 948.609375 261.101562 C 954.351562 270.84375 957.222656 281.96875 957.222656 294.464844 C 957.222656 309.722656 952.828125 323.175781 944.039062 334.832031 C 935.253906 346.492188 922.050781 354.222656 904.457031 358.019531 L 960.09375 450.847656 Z M 837.726562 337.050781 L 880.3125 337.050781 C 895.972656 337.050781 907.71875 333.199219 915.546875 325.480469 C 923.398438 317.738281 927.335938 307.40625 927.335938 294.464844 C 927.335938 281.328125 923.464844 271.171875 915.722656 263.972656 C 908 256.75 896.203125 253.140625 880.3125 253.140625 L 837.726562 253.140625 Z M 837.726562 337.050781 "/></g></svg>