<svg xmlns="http://www.w3.org/2000/svg" xmlns:xlink="http://www.w3.org/1999/xlink" width="500" zoomAndPan="magnify" viewBox="0 0 375 374.999991" height="500" preserveAspectRatio="xMidYMid meet" version="1.2"><defs/><g id="554e2c87f4"><g style="fill:#58a6ff;fill-opacity:1;"><g transform="translate(79.55065, 206.769854)"><path style="stroke:none" d="M 27.921875 -8.84375 L 10.5625 -8.84375 L 7.359375 0 L 1.890625 0 L 16.265625 -39.5625 L 22.265625 -39.5625 L 36.59375 0 L 31.109375 0 Z M 26.4375 -13.078125 L 19.234375 -33.171875 L 12.046875 -13.078125 Z M 26.4375 -13.078125 "/></g></g><g style="fill:#58a6ff;fill-opacity:1;"><g transform="translate(118.029448, 206.769854)"><path style="stroke:none" d="M 9.59375 -4.21875 L 23.515625 -4.21875 L 23.515625 0 L 4.390625 0 L 4.390625 -39.796875 L 9.59375 -39.796875 Z M 9.59375 -4.21875 "/></g></g><g style="fill:#58a6ff;fill-opacity:1;"><g transform="translate(142.692424, 206.769854)"><path style="stroke:none" d="M 25.34375 0 L 15.875 -16.265625 L 9.59375 -16.265625 L 9.59375 0 L 4.390625 0 L 4.390625 -39.796875 L 17.25 -39.796875 C 20.25 -39.796875 22.785156 -39.28125 24.859375 -38.25 C 26.929688 -37.226562 28.484375 -35.835938 29.515625 -34.078125 C 30.546875 -32.328125 31.0625 -30.332031 31.0625 -28.09375 C 31.0625 -25.351562 30.269531 -22.9375 28.6875 -20.84375 C 27.101562 -18.75 24.734375 -17.359375 21.578125 -16.671875 L 31.578125 0 Z M 9.59375 -20.4375 L 17.25 -20.4375 C 20.0625 -20.4375 22.171875 -21.128906 23.578125 -22.515625 C 24.984375 -23.910156 25.6875 -25.769531 25.6875 -28.09375 C 25.6875 -30.445312 24.992188 -32.269531 23.609375 -33.5625 C 22.222656 -34.863281 20.101562 -35.515625 17.25 -35.515625 L 9.59375 -35.515625 Z M 9.59375 -20.4375 "/></g></g><g style="fill:#58a6ff;fill-opacity:1;"><g transform="translate(177.403266, 206.769854)"><path style="stroke:none" d="M 6.046875 0.34375 C 5.054688 0.34375 4.21875 0 3.53125 -0.6875 C 2.851562 -1.375 2.515625 -2.210938 2.515625 -3.203125 C 2.515625 -4.191406 2.851562 -5.023438 3.53125 -5.703125 C 4.21875 -6.390625 5.054688 -6.734375 6.046875 -6.734375 C 7.003906 -6.734375 7.816406 -6.390625 8.484375 -5.703125 C 9.148438 -5.023438 9.484375 -4.191406 9.484375 -3.203125 C 9.484375 -2.210938 9.148438 -1.375 8.484375 -0.6875 C 7.816406 0 7.003906 0.34375 6.046875 0.34375 Z M 6.046875 0.34375 "/></g></g><g style="fill:#58a6ff;fill-opacity:1;"><g transform="translate(189.392204, 206.769854)"><path style="stroke:none" d="M 2.453125 -15.765625 C 2.453125 -18.953125 3.097656 -21.753906 4.390625 -24.171875 C 5.691406 -26.597656 7.472656 -28.472656 9.734375 -29.796875 C 11.992188 -31.128906 14.535156 -31.796875 17.359375 -31.796875 C 19.796875 -31.796875 22.0625 -31.234375 24.15625 -30.109375 C 26.25 -28.992188 27.847656 -27.519531 28.953125 -25.6875 L 28.953125 -42.25 L 34.203125 -42.25 L 34.203125 0 L 28.953125 0 L 28.953125 -5.875 C 27.921875 -4.007812 26.394531 -2.476562 24.375 -1.28125 C 22.363281 -0.0820312 20.003906 0.515625 17.296875 0.515625 C 14.515625 0.515625 11.992188 -0.164062 9.734375 -1.53125 C 7.472656 -2.90625 5.691406 -4.828125 4.390625 -7.296875 C 3.097656 -9.773438 2.453125 -12.597656 2.453125 -15.765625 Z M 28.953125 -15.703125 C 28.953125 -18.054688 28.472656 -20.109375 27.515625 -21.859375 C 26.566406 -23.617188 25.28125 -24.960938 23.65625 -25.890625 C 22.039062 -26.828125 20.265625 -27.296875 18.328125 -27.296875 C 16.390625 -27.296875 14.617188 -26.835938 13.015625 -25.921875 C 11.421875 -25.003906 10.144531 -23.671875 9.1875 -21.921875 C 8.238281 -20.171875 7.765625 -18.117188 7.765625 -15.765625 C 7.765625 -13.359375 8.238281 -11.269531 9.1875 -9.5 C 10.144531 -7.726562 11.421875 -6.375 13.015625 -5.4375 C 14.617188 -4.507812 16.390625 -4.046875 18.328125 -4.046875 C 20.265625 -4.046875 22.039062 -4.507812 23.65625 -5.4375 C 25.28125 -6.375 26.566406 -7.726562 27.515625 -9.5 C 28.472656 -11.269531 28.953125 -13.335938 28.953125 -15.703125 Z M 28.953125 -15.703125 "/></g></g><g style="fill:#58a6ff;fill-opacity:1;"><g transform="translate(227.985186, 206.769854)"><path style="stroke:none" d="M 32.9375 -16.84375 C 32.9375 -15.851562 32.878906 -14.804688 32.765625 -13.703125 L 7.765625 -13.703125 C 7.953125 -10.617188 9.003906 -8.207031 10.921875 -6.46875 C 12.847656 -4.738281 15.179688 -3.875 17.921875 -3.875 C 20.171875 -3.875 22.046875 -4.394531 23.546875 -5.4375 C 25.054688 -6.488281 26.113281 -7.894531 26.71875 -9.65625 L 32.3125 -9.65625 C 31.476562 -6.644531 29.800781 -4.195312 27.28125 -2.3125 C 24.769531 -0.425781 21.648438 0.515625 17.921875 0.515625 C 14.953125 0.515625 12.296875 -0.148438 9.953125 -1.484375 C 7.617188 -2.816406 5.785156 -4.707031 4.453125 -7.15625 C 3.117188 -9.613281 2.453125 -12.460938 2.453125 -15.703125 C 2.453125 -18.929688 3.097656 -21.765625 4.390625 -24.203125 C 5.691406 -26.640625 7.507812 -28.515625 9.84375 -29.828125 C 12.1875 -31.140625 14.878906 -31.796875 17.921875 -31.796875 C 20.890625 -31.796875 23.515625 -31.148438 25.796875 -29.859375 C 28.085938 -28.566406 29.847656 -26.785156 31.078125 -24.515625 C 32.316406 -22.253906 32.9375 -19.695312 32.9375 -16.84375 Z M 27.578125 -17.921875 C 27.578125 -19.898438 27.140625 -21.601562 26.265625 -23.03125 C 25.390625 -24.457031 24.195312 -25.539062 22.6875 -26.28125 C 21.1875 -27.03125 19.523438 -27.40625 17.703125 -27.40625 C 15.078125 -27.40625 12.835938 -26.566406 10.984375 -24.890625 C 9.140625 -23.210938 8.085938 -20.890625 7.828125 -17.921875 Z M 27.578125 -17.921875 "/></g></g><g style="fill:#58a6ff;fill-opacity:1;"><g transform="translate(263.381112, 206.769854)"><path style="stroke:none" d="M 16.046875 -4.796875 L 25.75 -31.28125 L 31.28125 -31.28125 L 19.015625 0 L 12.953125 0 L 0.6875 -31.28125 L 6.28125 -31.28125 Z M 16.046875 -4.796875 "/></g></g></g></svg>